<?xml version="1.0" encoding="utf-8"?>
<!-- Generator: Adobe Illustrator 27.5.0, SVG Export Plug-In . SVG Version: 6.00 Build 0)  -->
<svg version="1.1" id="Layer_1" xmlns="http://www.w3.org/2000/svg" xmlns:xlink="http://www.w3.org/1999/xlink" x="0px" y="0px"
	 viewBox="0 0 5000 5000" style="enable-background:new 0 0 5000 5000;" xml:space="preserve">
<g id="_x35_4">
	<g>
		<g>
			<g>
				<path style="fill:#20AEA7;" d="M2878.604,3704.262c-41.12,20.263-90.813,3.377-111.077-37.746
					c20.562-10.132,43.286-10.93,63.349-4.113C2851.029,3669.177,2868.473,3683.701,2878.604,3704.262z"/>
			</g>
			<g>
				<path style="fill:#20AEA7;" d="M2994.79,3719.277c-41.121,20.262-90.813,3.377-111.077-37.745
					c20.562-10.132,43.286-10.931,63.349-4.113C2967.215,3684.192,2984.658,3698.716,2994.79,3719.277z"/>
			</g>
			<g>
				<path style="fill:#20AEA7;" d="M3183.023,3750.603c-41.121,20.263-90.813,3.377-111.077-37.745
					c20.562-10.132,43.286-10.931,63.349-4.113C3155.447,3715.518,3172.891,3730.042,3183.023,3750.603z"/>
			</g>
			<g>
				<g>
					
						<rect x="2970.678" y="3724.542" transform="matrix(0.1695 -0.9855 0.9855 0.1695 -1129.8317 6123.5474)" style="fill:#20AEA7;" width="195.179" height="15.152"/>
				</g>
			</g>
			<g>
				<g>
					
						<rect x="2984.816" y="3590.029" transform="matrix(0.9901 -0.1407 0.1407 0.9901 -492.3441 457.86)" style="fill:#20AEA7;" width="15.158" height="242.768"/>
				</g>
			</g>
			<g>
				<g>
					
						<rect x="2868.958" y="3603.945" transform="matrix(0.9901 -0.1406 0.1406 0.9901 -495.3547 441.5983)" style="fill:#20AEA7;" width="15.158" height="242.767"/>
				</g>
			</g>
			<g>
				<path style="fill:#20AEA7;" d="M2970.277,3596.926c0,0-1.053,24.697,56.352,41.162c57.405,16.465,152.451-17.63,273.691,47.315
					c0,0-28.376-137.059-98.788-186.516c0,0,80.827-45.652,98.788-80.078c17.961-34.426,90.556-98.04,92.801-98.04
					c2.245,0-94.298,7.484-141.447-11.974s-190.841-47.897-243.228,60.62c0,0-64.362-67.355-149.679-35.923
					c-85.317,31.433-87.156,118.648-87.156,118.648s-143.349,74.438-122.394,205.407c0,0,43.189-66.607,114.77-44.904
					s79.618,25.507,111.907,19.31C2937.382,3620.151,2970.277,3596.926,2970.277,3596.926z"/>
			</g>
			<g>
				<path style="fill:#4DE9D2;" d="M3008.445,3369.414c-0.162,14.426-0.957,34.969,0.215,48.838
					c1.191,16.797,3.579,31.249,11.481,46.385c-6.385-5.472-10.923-13.052-13.951-21.005c-4.497-11.512-7.021-29.547-4.033-50.008
					C3003.369,3385.357,3005.223,3377.166,3008.445,3369.414z"/>
			</g>
			<g>
				<path style="fill:#4DE9D2;" d="M2882.419,3420.731c31.581,0.292,63.436,20.634,80.091,44.817
					c5.015,6.201,10.527,16.693,14.84,27.569c-6.393-8.264-12.545-16.393-19.426-23.836c-12.147-13.877-28.262-26.861-47.191-36.965
					C2901.775,3427.688,2892.393,3423.741,2882.419,3420.731z"/>
			</g>
			<g>
				<path style="fill:#4DE9D2;" d="M3119.152,3493.117c-12.044-0.472-23.332,3.791-32.677,10.097
					c-9.527,6.477-16.596,15.209-23.264,25.149c-13.577,18.688-38.891,35.626-58.705,41.884c5.137-3.073,9.964-6.567,14.656-10.219
					c7.934-5.911,19.922-15.797,26.7-22.983c12.203-12.242,13.847-18.47,22.674-27.456c4.525-4.286,9.241-8.504,14.853-11.394
					C3094.244,3492.049,3107.51,3489.665,3119.152,3493.117z"/>
			</g>
			<g>
				<path style="fill:#4DE9D2;" d="M3152.954,3558.953c0,0-10.569-171.453,88.075-192.591
					c98.645-21.138,374.614-38.753,374.614-38.753s-159.71,189.068-285.364,201.986
					C3204.625,3542.512,3171.743,3535.466,3152.954,3558.953z"/>
			</g>
			<g>
				<g>
					<path style="fill:#2ECBC1;" d="M3237.023,3472.695c-1.576,0-3.145-0.651-4.27-1.931c-2.072-2.361-1.835-5.946,0.518-8.018
						c1.554-1.362,38.576-33.437,88.446-35.542c108.159-4.562,200.06-37.426,273.143-97.685c2.412-1.994,6.001-1.657,8.007,0.77
						c1.99,2.42,1.65,6.001-0.77,8c-75.044,61.868-169.209,95.605-279.907,100.274c-45.754,1.927-81.067,32.416-81.415,32.723
						C3239.694,3472.232,3238.354,3472.695,3237.023,3472.695z"/>
				</g>
			</g>
			<g>
				<g>
					<path style="fill:#4DE9D2;" d="M3102.497,3842.02l-15.14-0.659c2.486-56.973,21.43-139.313,36.882-198.355
						c9.169-35.024,17.672-64.158,23.199-82.429c11.833-39.172,11.848-39.168,18.286-39.039l7.43,7.63h-7.489l6.66,3.3
						C3169.216,3539.684,3107.055,3737.661,3102.497,3842.02z M3157.998,3529.168h7.555H3157.998z"/>
				</g>
			</g>
			<g>
				<g>
					<path style="fill:#4DE9D2;" d="M3049.69,3842.02l-15.14-0.659c2.487-56.829,10.915-155.501,17.553-228.269
						c1.162-12.753,12.134-133.534,14.726-146.077h7.082h-7.082c1.584-7.733,3.271-7.744,7.252-7.615l7.415,7.615h-7.341
						l7.222,1.236C3080.297,3475.599,3054.389,3734.438,3049.69,3842.02z"/>
				</g>
			</g>
			<g>
				<path style="fill:#4DE9D2;" d="M3346.449,3087.407c0,0-98.206,172.865-113.665,215.244
					c-28.947,79.268-86.159,134.374-160.873,202.668c-0.607,0.608-1.289,1.143-1.895,1.753c0,0-4.244-18.218-9.851-38.644
					c-3.51-12.197-11.799-41.546-18.565-51.753c-11.67-17.531-33.115-113.416,15.08-178.276
					c48.269-64.865,142.383-95.885,142.383-95.885L3346.449,3087.407z"/>
			</g>
			<g>
				<g>
					<path style="fill:#2ECBC1;" d="M3189.213,3217.057c-0.834,0.914-82.976,96.112-108.437,149.313
						c-19.929,41.465-12.654,112.042-8.865,138.95c-0.607,0.608-1.289,1.143-1.895,1.753c-0.325-1.226-8.854-38.338-17.808-64.865
						c0.152-28.277,3.637-58.992,14.852-82.468c26.446-55.031,107.301-148.781,110.71-152.744c2.803-3.124,7.577-3.506,10.76-0.763
						C3191.637,3209.053,3192.015,3213.854,3189.213,3217.057z"/>
				</g>
			</g>
			<g>
				<g>
					<path style="fill:#4DE9D2;" d="M2983.704,3896.769c-10.738-104.189-99.531-361.396-103.186-369.562l6.83-3.056l-0.074-0.3
						l-7.578,0.451l6.956-8.044c6.468-0.548,6.527-0.522,22.926,48.104c6.394,18.97,19.21,57.558,33.152,102.901
						c22.341,72.65,50.195,171.17,56.055,227.951L2983.704,3896.769z"/>
				</g>
			</g>
			<g>
				<path style="fill:#4DE9D2;" d="M2592.766,3161.02c0,0,108.255,166.757,126.192,208.147
					c33.583,77.417,93.953,129.045,172.574,192.802c0.642,0.572,1.354,1.064,1.995,1.638c0,0,3.159-18.437,7.549-39.159
					c2.783-12.383,9.323-42.171,15.473-52.76c10.613-18.19,26.352-115.175-25.594-177.073
					c-52.019-61.897-147.803-87.299-147.803-87.299L2592.766,3161.02z"/>
			</g>
			<g>
				<g>
					<path style="fill:#2ECBC1;" d="M2757.392,3281.146c0.887,0.863,88.513,91.038,117.075,142.64
						c22.346,40.214,19.256,111.098,17.065,138.183c0.642,0.572,1.354,1.064,1.995,1.638c0.252-1.243,6.572-38.795,13.942-65.804
						c-1.823-28.219-7.119-58.674-19.702-81.446c-29.653-53.37-115.909-142.177-119.547-145.931
						c-2.982-2.953-7.772-3.052-10.786-0.125C2754.499,3273.3,2754.405,3278.115,2757.392,3281.146z"/>
				</g>
			</g>
			<g>
				<path style="fill:#4DE9D2;" d="M2335.197,3485.382c0,0,165.606,66.784,200.143,87.967
					c64.622,39.605,135.64,46.431,226.334,52.762c0.767,0.089,1.544,0.084,2.312,0.176c0,0-7.186-15.186-14.645-32.687
					c-4.34-10.541-14.895-35.817-15.834-46.775c-1.578-18.849-40.026-98.28-110.146-117.003
					c-70.174-18.684-153.706,12.039-153.706,12.039L2335.197,3485.382z"/>
			</g>
			<g>
				<g>
					<path style="fill:#2ECBC1;" d="M2518.204,3488.804c1.097,0.177,112.037,21.289,159.653,44.502
						c37.172,18.044,71.459,71.76,83.817,92.805c0.767,0.089,1.544,0.084,2.312,0.176c-0.456-1.044-15.176-31.915-23.687-55.577
						c-15.895-19.809-35.496-39.472-56.493-49.726c-49.33-23.949-158.557-44.762-163.169-45.646
						c-3.716-0.633-7.288,1.764-7.996,5.471C2512.029,3484.527,2514.444,3488.116,2518.204,3488.804z"/>
				</g>
			</g>
			<g>
				<g>
					<path style="fill:#4DE9D2;" d="M2852.179,3849.163c-36.001-143.864-114.22-236.913-115.004-237.838l11.529-9.831
						c3.301,3.87,81.267,96.5,118.171,243.991L2852.179,3849.163z"/>
				</g>
			</g>
			<g>
				<path style="fill:#EA8124;" d="M3199.366,3842.975V4067.5c0,27.584-22.354,49.938-49.861,49.938h-329.628
					c-27.584,0-49.938-22.354-49.938-49.938v-224.525c0-10.079,8.185-18.263,18.262-18.263h392.977
					C3191.259,3824.711,3199.366,3832.896,3199.366,3842.975z"/>
			</g>
			<g>
				<path style="fill:#CE5D09;" d="M3199.366,3842.975V4067.5c0,27.584-22.354,49.938-49.861,49.938h-329.628
					c-23.795,0-43.723-16.67-48.725-38.948h329.098c27.506,0,49.861-22.355,49.861-49.937v-203.84h31.068
					C3191.259,3824.711,3199.366,3832.896,3199.366,3842.975z"/>
			</g>
		</g>
		<g>
			<g>
				<g>
					<path style="fill:#B7B7E4;" d="M3722.422,926.194c-1.855-2.675-3.799-5.183-5.828-7.689
						c-7.151-8.525-15.937-15.881-25.7-21.564c-5.711-3.26-11.603-6.102-18.019-8.357c-3.082-1.089-6.336-2.09-9.682-2.843
						c-8.358-2.089-16.914-3.177-26.01-3.177h-81.795l-62.993,2058.345h81.795c59.451,0,105.853-46.593,107.38-96.484
						l56.949-1860.844C3739.214,960.879,3733.142,941.906,3722.422,926.194z"/>
				</g>
				<g>
					<g>
						<g>
							<g>
								<g>
									<path style="fill:#E1E1FE;" d="M3697.745,981.356l-56.949,1860.844c-1.648,53.859-48.992,98.709-107.449,98.709H1639.074
										c-57.604,0-102.744-44.047-101.071-98.709l56.949-1860.844c1.097-35.854,22.019-67.283,52.608-84.415
										c5.743-3.261,11.977-6.101,18.531-8.358c3.148-1.088,6.464-2.089,9.855-2.842c8.401-2.09,17.109-3.177,26.121-3.177
										h1894.273c9.096,0,17.652,1.088,26.01,3.177c3.346,0.753,6.6,1.755,9.682,2.842c6.416,2.257,12.308,5.097,18.018,8.358
										c9.764,5.683,18.55,13.039,25.701,21.564c2.029,2.506,3.973,5.014,5.828,7.689
										C3692.299,941.906,3698.372,960.879,3697.745,981.356z"/>
								</g>
								<g>
									<g>
										<g>
											<path style="fill:#B7B7E4;" d="M1750.5,995.735c-0.514,16.804-15.323,30.356-32.863,30.356
												c-17.732,0-31.616-13.552-31.102-30.356c0.512-16.716,15.225-30.268,32.957-30.268
												C1737.031,965.467,1751.011,979.019,1750.5,995.735z"/>
										</g>
									</g>
									<g>
										<g>
											<path style="fill:#B7B7E4;" d="M1930.287,995.735c-0.514,16.804-15.323,30.356-32.959,30.356
												s-31.52-13.552-31.005-30.356c0.511-16.716,15.225-30.268,32.861-30.268
												C1916.818,965.467,1930.798,979.019,1930.287,995.735z"/>
										</g>
									</g>
									<g>
										<g>
											<path style="fill:#B7B7E4;" d="M1840.394,995.735c-0.514,16.804-15.323,30.356-32.96,30.356
												c-17.635,0-31.52-13.552-31.005-30.356c0.511-16.716,15.225-30.268,32.861-30.268
												C1826.926,965.467,1840.905,979.019,1840.394,995.735z"/>
										</g>
									</g>
								</g>
							</g>
						</g>
					</g>
				</g>
			</g>
			<g>
				<g>
					<polygon style="fill:#CBCBF4;" points="3143.54,1503.172 3146.068,1281.067 2853.13,1281.067 2850.602,1503.172 					"/>
				</g>
				<g>
					<polygon style="fill:#CBCBF4;" points="2410.417,1503.172 2412.944,1281.067 2120.006,1281.067 2117.479,1503.172 					"/>
				</g>
				<g>
					<polygon style="fill:#CBCBF4;" points="2776.979,1503.172 2779.506,1281.067 2486.568,1281.067 2484.04,1503.172 					"/>
				</g>
				<g>
					<polygon style="fill:#CBCBF4;" points="3510.102,1503.172 3512.629,1281.067 3219.691,1281.067 3217.164,1503.172 					"/>
				</g>
				<g>
					<polygon style="fill:#CBCBF4;" points="2046.382,1281.067 1753.444,1281.067 1750.917,1503.172 2043.855,1503.172 					"/>
				</g>
			</g>
			<g>
				<g>
					<polygon style="fill:#CBCBF4;" points="3143.54,1788.447 3146.068,1566.342 2853.13,1566.342 2850.602,1788.447 					"/>
				</g>
				<g>
					<polygon style="fill:#CBCBF4;" points="2410.417,1788.447 2412.944,1566.342 2120.006,1566.342 2117.479,1788.447 					"/>
				</g>
				<g>
					<polygon style="fill:#CBCBF4;" points="2776.979,1788.447 2779.506,1566.342 2486.568,1566.342 2484.04,1788.447 					"/>
				</g>
				<g>
					<polygon style="fill:#CBCBF4;" points="3510.102,1788.447 3512.629,1566.342 3219.691,1566.342 3217.164,1788.447 					"/>
				</g>
				<g>
					<polygon style="fill:#CBCBF4;" points="2046.382,1566.342 1753.444,1566.342 1750.917,1788.447 2043.855,1788.447 					"/>
				</g>
			</g>
			<g>
				<g>
					<polygon style="fill:#CBCBF4;" points="3143.54,2073.723 3146.068,1851.618 2853.13,1851.618 2850.602,2073.723 					"/>
				</g>
				<g>
					<polygon style="fill:#CBCBF4;" points="2410.417,2073.723 2412.944,1851.618 2120.006,1851.618 2117.479,2073.723 					"/>
				</g>
				<g>
					<polygon style="fill:#CBCBF4;" points="2776.979,2073.723 2779.506,1851.618 2486.568,1851.618 2484.04,2073.723 					"/>
				</g>
				<g>
					<polygon style="fill:#CBCBF4;" points="3510.102,2073.723 3512.629,1851.618 3219.691,1851.618 3217.164,2073.723 					"/>
				</g>
				<g>
					<polygon style="fill:#CBCBF4;" points="2046.382,1851.618 1753.444,1851.618 1750.917,2073.723 2043.855,2073.723 					"/>
				</g>
			</g>
			<g>
				<g>
					<polygon style="fill:#CBCBF4;" points="3143.54,2358.999 3146.068,2136.893 2853.13,2136.893 2850.602,2358.999 					"/>
				</g>
				<g>
					<polygon style="fill:#CBCBF4;" points="2410.417,2358.999 2412.944,2136.893 2120.006,2136.893 2117.479,2358.999 					"/>
				</g>
				<g>
					<polygon style="fill:#CBCBF4;" points="2776.979,2358.999 2779.506,2136.893 2486.568,2136.893 2484.04,2358.999 					"/>
				</g>
				<g>
					<polygon style="fill:#CBCBF4;" points="3510.102,2358.999 3512.629,2136.893 3219.691,2136.893 3217.164,2358.999 					"/>
				</g>
				<g>
					<polygon style="fill:#CBCBF4;" points="2046.382,2136.893 1753.444,2136.893 1750.917,2358.999 2043.855,2358.999 					"/>
				</g>
			</g>
			<g>
				<g>
					<polygon style="fill:#CBCBF4;" points="3143.54,2644.274 3146.068,2422.169 2853.13,2422.169 2850.602,2644.274 					"/>
				</g>
				<g>
					<polygon style="fill:#CBCBF4;" points="2410.417,2644.274 2412.944,2422.169 2120.006,2422.169 2117.479,2644.274 					"/>
				</g>
				<g>
					<polygon style="fill:#CBCBF4;" points="2776.979,2644.274 2779.506,2422.169 2486.568,2422.169 2484.04,2644.274 					"/>
				</g>
				<g>
					<polygon style="fill:#CBCBF4;" points="3510.102,2644.274 3512.629,2422.169 3219.691,2422.169 3217.164,2644.274 					"/>
				</g>
				<g>
					<polygon style="fill:#CBCBF4;" points="2046.382,2422.169 1753.444,2422.169 1750.917,2644.274 2043.855,2644.274 					"/>
				</g>
			</g>
		</g>
		<g>
			<g>
				<g>
					<g>
						<path style="fill:#E1E1FE;" d="M4404.404,4010.946c-54.104,4.409-54.104-78.388-101.924-66.292
							c-1.689,0.375-3.283,0.843-4.785,1.406l2.908-85.421l128.179,51.1l7.408,32.915l0.094,0.188l3.846,17.627
							C4442.474,3981.035,4439.473,4008.039,4404.404,4010.946z"/>
					</g>
					<g>
						<path style="fill:#CE5D09;" d="M4474.26,4083.991c-0.655,9.097-8.344,16.13-17.439,16.13h-349.939
							c-9.377,0-16.879-7.408-17.536-16.693c-5.345-78.951,85.423-70.605,128.46-80.169c44.26-9.752,37.507-43.976,79.89-57.199
							c1.502-0.563,3.095-1.03,4.785-1.406c47.82-12.096,47.82,70.701,101.924,66.292c35.069-2.907,38.07-29.911,35.726-48.477
							c-1.032-9.285-3.47-16.597-3.846-17.627l-0.094-0.188C4477.449,3975.596,4476.792,4050.798,4474.26,4083.991z"/>
					</g>
					<g>
						<path style="fill:#1D1B37;" d="M4474.97,4076.852c-0.14,2.541-0.295,4.945-0.463,7.138c-0.655,9.097-8.344,16.13-17.439,16.13
							h-349.939c-9.377,0-16.879-7.408-17.536-16.693c-0.154-2.267-0.208-4.446-0.206-6.575H4474.97z"/>
					</g>
				</g>
				<g>
					<g>
						<path style="fill:#E1E1FE;" d="M3939.299,4010.946c-54.104,4.409-54.104-78.388-101.924-66.292
							c-1.689,0.375-3.283,0.843-4.785,1.406l2.907-85.421l128.179,51.1l7.408,32.915l0.094,0.188l3.846,17.627
							C3977.369,3981.035,3974.367,4008.039,3939.299,4010.946z"/>
					</g>
					<g>
						<path style="fill:#CE5D09;" d="M4009.155,4083.991c-0.655,9.097-8.344,16.13-17.439,16.13h-349.94
							c-9.377,0-16.879-7.408-17.536-16.693c-5.345-78.951,85.423-70.605,128.461-80.169c44.26-9.752,37.507-43.976,79.89-57.199
							c1.502-0.563,3.095-1.03,4.785-1.406c47.82-12.096,47.82,70.701,101.924,66.292c35.069-2.907,38.07-29.911,35.726-48.477
							c-1.032-9.285-3.47-16.597-3.846-17.627l-0.094-0.188C4012.344,3975.596,4011.687,4050.798,4009.155,4083.991z"/>
					</g>
					<g>
						<path style="fill:#1D1B37;" d="M4009.864,4076.852c-0.14,2.541-0.295,4.945-0.463,7.138
							c-0.655,9.097-8.344,16.13-17.439,16.13h-349.94c-9.377,0-16.879-7.408-17.536-16.693c-0.153-2.267-0.208-4.446-0.206-6.575
							H4009.864z"/>
					</g>
				</g>
				<g>
					<path style="fill:#283151;" d="M4466.742,3924.601c0,14.51-112.434,18.23-170.018,11.154
						c-19.781-2.426-33.105-6.146-33.105-11.154c-2.789-15.393-131.75-969.653-131.75-969.653l-40.129,4.181
						c0,0-88.676,950.699-88.573,965.472c0,15.027-203.64,16.371-203.64,1.342c-0.619-15.287,65.539-1253.292,65.539-1253.292
						l505.304,27.992L4466.742,3924.601z"/>
				</g>
				<g>
					<g>
						<g>
							<path style="fill:#FEABB5;" d="M3178.048,1944.054c-3.399,7.464,46.385,39.096,67.38,53.184
								c-23.529-13.566-77.567-40.452-79.59-27.733c-3.376,21.113,68.41,60.276,76.752,64.763
								c-9.054-4.274-75.061-30.908-76.313-0.776c-0.991,22.356,173.45,99.035,192.744,100.301
								c19.362,1.333,43.441-1.767,43.441-1.767l39.542-82.506l-39.013-44.443c0,0-37.333-90.696-62.599-93.282
								c-24.156-2.473,1.235,72.884,1.235,72.884s-120.535-88.352-131.182-68.164c-5.917,11.187,18.799,32.885,41.894,49.856
								c13.144,8.411,24.582,16.476,30.833,20.887c-6.569-4.077-18.456-11.803-30.833-20.887
								C3223.133,1947.793,3185.59,1927.535,3178.048,1944.054z"/>
						</g>
						<g>
							<path style="fill:#55B1F4;" d="M3353.896,2142.878c0,0,271.531,260.09,327.034,279.486
								c16.446,5.72,33.785,3.039,51.214-5.273c79.636-37.717,159.808-192.878,159.808-192.878
								c20.903-306.807,10.16-168.4,16.892-281.631c0,0-108.147,66.229-205.57,242.126l-271.531-163.383
								C3421.198,2006.577,3343.439,2128.131,3353.896,2142.878z"/>
						</g>
						<g>
							<path style="fill:#258BCA;" d="M3732.145,2417.09c79.636-37.717,159.808-192.878,159.808-192.878l7.776-114.404
								c-6.525-18.591-16.893-36.913-34.232-38.165c0,0-17.374,75.295-22.379,96.299c-16.088,67.659-45.906,122.856-75.132,185.958
								C3757.796,2375.798,3745.909,2397.07,3732.145,2417.09z"/>
						</g>
						<g>
							<path style="fill:#55B1F4;" d="M4396.978,2098.831c-0.829,224.313-27.998,601.453-27.998,601.453
								c-636.279-36.508-480.331-27.56-505.282-28.992c-7.621-38.765-30.317-676.334,35.37-722.224
								c151.916-106.274,459.972-48.373,485.403-9.11C4393.996,1954.619,4397.309,2016.412,4396.978,2098.831z"/>
						</g>
						<g>
							<path style="fill:#258BCA;" d="M4396.978,2098.831c-0.829,224.313-27.998,601.453-27.998,601.453l-45.724-2.651
								c12.757-95.507-182.401-292.872-152.331-319.626c7.404-6.588,189.619-54.206,181.998-109.29
								c-7.621-55.168-27.347-134.765-10.284-187.777l12.425-32.306C4370.802,2063.958,4384.718,2080.774,4396.978,2098.831z"/>
						</g>
						<g>
							<path style="fill:#CE5D09;" d="M4373.567,2660.733c0,0-402.008,17.814-512.58-23.366l0.835,96.048
								c0,0,330.645,44.672,511.745,11.586V2660.733z"/>
						</g>
						<g>
							<path style="fill:#F3F7FB;" d="M4179.964,2664.538l-5.213,89.817c-0.245,4.227-3.845,7.433-8.073,7.188l-147.252-8.547
								c-4.177-0.242-7.433-3.847-7.188-8.074l5.213-89.817c0.242-4.177,3.897-7.43,8.074-7.188l147.252,8.547
								C4177.004,2656.71,4180.207,2660.362,4179.964,2664.538z"/>
						</g>
					</g>
					<g>
						<path style="fill:#F8576B;" d="M4068.961,1989.881l23.807,30.578l-77.544,521.115l45.448,79.94l69.388-67.417
							c0,0-18.444-317.261,5.062-518.725l32.368-37.366l-39.18-59.734L4068.961,1989.881z"/>
					</g>
					<g>
						<path style="fill:#E1E1FE;" d="M4207.608,1866.541l37.524,34.483c-9.563,53.529-31.335,98.3-71.574,129.814
							c-15.177-44.793-23.904-75.681-50.293-80.559c-27.05,8.17-45.472,33.031-60.628,64.214
							c-32.742-37.342-45.372-79.399-39.357-115.397l50.698-41.851L4207.608,1866.541z"/>
					</g>
					<g>
						<path style="fill:#E48A9A;" d="M4075.244,1788.857c-0.546,1.64-4.477,71.04-4.477,71.04
							c-1.79,21.758,52.498,90.383,52.498,90.383s82.042-55.764,84.343-83.739l1.112-232.561L4075.244,1788.857z"/>
					</g>
				</g>
				<g>
					<g>
						<path style="fill:#FEABB5;" d="M3889.017,1503.127c0,0,0.09,7.211,0.271,18.842c0.451,39.488,1.803,130.548,3.336,166.25
							c1.442,34.443,20.917,80.781,69.692,106.657c22.99,12.172,52.472,19.924,89.617,19.656
							c87.002-0.634,127.844-49.138,146.777-90.07c0,0,0,0,0.09,0c13.885-29.931,16.048-55.895,16.048-55.895
							s85.019,14.514,76.273-77.809c-6.852-71.765-54.185-51.568-76.273-32.726c-3.606,2.976-6.492,6.04-8.475,8.567
							c8.024-53.553,15.237-146.779-27.137-168.147c-60.315-30.38-241.262-26.774-267.047,0
							C3886.403,1425.322,3889.017,1503.127,3889.017,1503.127z"/>
					</g>
					<g>
						<path style="fill:#E48A9A;" d="M3962.315,1794.876c22.99,12.172,52.472,19.924,89.617,19.656
							c87.002-0.634,127.844-49.138,146.777-90.07c0,0,0,0,0.09,0c13.885-29.931,16.048-55.895,16.048-55.895
							s85.019,14.514,76.273-77.809c-6.852-71.765-54.185-51.568-76.273-32.726c6.401,5.049,20.466-1.981,28.4-1.532
							c45.056,2.537,53.296,57.624,24.613,79.79c-19.475,15.056-49.677,13.251-65.725,31.916
							c-13.794,16.046-11.18,40.298-19.293,59.773c-10.008,23.803-45.67,49.912-69.652,59.289
							C4061.979,1807.193,4016.86,1801.638,3962.315,1794.876z"/>
					</g>
					<g>
						<path style="fill:#222130;" d="M3796.065,1430.46c10.548,10.909,28.851,10.909,42.464,3.966
							c6.942-3.605,12.983-8.567,18.392-14.246c2.705,65.184,30.383,128.655,31.826,135.958c-0.271-3.425-0.541-17.041,0.541-34.17
							c1.532-27.228,6.131-63.559,18.392-82.493c21.007-32.546,50.578,3.606,95.116,16.227
							c44.628,12.714,99.444-18.661,142.81-19.291c43.366-0.542,47.603,76.453,41.022,102.506
							c-6.672,25.969,7.753,68.072,16.228,69.243c8.475,1.263,3.516-41.561,3.516-41.561c14.425-18.573,77.196-59.091,84.749,24.159
							c5.512,60.759-76.273,77.81-76.273,77.81c-7.817,5.631-7.867,49.355-3.497,92.419c2.614-1.352,100.776-92.239,113.849-214.854
							c7.123-67.169-10.098-87.904-22.449-94.216c4.237-21.188-0.361-43.454-9.196-63.291
							c-9.106-20.012-22.449-37.775-36.063-55.085c-35.522-44.898-75.011-88.357-125.68-114.859
							c-50.669-26.51-114.861-33.272-164.357-4.693c-28.67,16.592-51.119,43.908-82.404,54.816
							c-19.474,6.762-40.841,6.493-60.225,13.343c-19.384,6.942-37.776,25.427-33.538,45.532
							c4.778,23.349,36.514,35.883,36.153,59.685c-11.359-5.503-26.416-1.805-33.809,8.382
							C3786.238,1405.847,3787.32,1421.351,3796.065,1430.46z"/>
					</g>
					<g>
						<g>
							<path style="fill:#222130;" d="M4100.604,1574.677c0,13.431-7.303,24.34-16.229,24.34c-9.016,0-16.229-10.909-16.229-24.34
								c0-13.436,7.213-24.344,16.229-24.344C4093.301,1550.333,4100.604,1561.242,4100.604,1574.677z"/>
						</g>
						<g>
							<path style="fill:#222130;" d="M3965.141,1574.677c0,13.431-7.303,24.34-16.229,24.34c-9.016,0-16.229-10.909-16.229-24.34
								c0-13.436,7.213-24.344,16.229-24.344C3957.838,1550.333,3965.141,1561.242,3965.141,1574.677z"/>
						</g>
						<g>
							<path style="fill:#222130;" d="M4056.456,1530.59c16.693-17.584,49.597-15.789,63.173,4.723
								C4098.953,1525.69,4078.849,1524.628,4056.456,1530.59L4056.456,1530.59z"/>
						</g>
						<g>
							<path style="fill:#222130;" d="M3912.714,1532.501c13.628-20.053,46.388-23.606,63.105-5.561
								C3953.858,1520.788,3933.848,1522.994,3912.714,1532.501L3912.714,1532.501z"/>
						</g>
						<g>
							<path style="fill:#E48A9A;" d="M4003.724,1561.973c-1.898,19.723-6.281,38.774-11.246,57.666
								c-5.161,14.748-3.85,27.453,12.97,25.598c4.536-0.522,9.105-2.419,13.801-4.017c-3.774,3.201-7.822,6.172-12.804,8.029
								c-11.787,4.731-25.16-3.115-24.668-16.363C3984.706,1607.969,3994.066,1585.101,4003.724,1561.973L4003.724,1561.973z"/>
						</g>
						<g>
							<path style="fill:#AE5053;" d="M4063.819,1686.291c-0.538,0.842-3.484,50.939-52.292,55.358
								c-15.868,1.351-26.867-3.517-34.348-10.909c-16.77-16.139-16.861-44.449-16.861-44.449H4063.819z"/>
						</g>
						<g>
							<path style="fill:#FFFFFF;" d="M4061.746,1686.291c-8.474,9.738-23.081,18.934-47.964,20.466
								c-28.489,1.805-43.184-9.016-50.667-20.466H4061.746z"/>
						</g>
						<g>
							<path style="fill:#E86060;" d="M4049.125,1722.715c-17.895,21.389-53.563,26.186-71.946,8.025
								c5.769-7.303,17.67-16.319,39.849-15.597C4033.255,1715.593,4043.173,1719.11,4049.125,1722.715z"/>
						</g>
					</g>
				</g>
			</g>
			<g>
				<path style="fill:#55B1F4;" d="M4380.44,1935.49c89.814,60.394,204.909,282.531,261.495,426.933
					c28.939,73.85-23.411,154.254-102.643,157.95l-371.802,1.68v-155.046l267.312-11.333l-127.022-228.714
					c-18.623-33.531-15.38-74.951,8.234-105.175L4380.44,1935.49z"/>
			</g>
			<g>
				<g>
					<path style="fill:#FEABB5;" d="M4098.773,2378.926c0,0-38.069-33.714-26.332-51.862c19.665-30.404,95.048,54.442,95.048,54.442
						"/>
				</g>
			</g>
			<g>
				<g>
					<polygon style="fill:#1B152B;" points="3734.954,2173.95 3981.562,2173.95 3912.904,2093.398 3786.612,2093.398 					"/>
				</g>
				<g>
					<path style="fill:#4D475B;" d="M3715.467,2691.802h394.873c11.847,0,20.588-9.362,19.794-21.201l-34.299-511.302
						c-0.838-12.499-11.938-22.894-24.447-22.894h-434.183c-12.509,0-21.415,10.395-19.615,22.894l73.609,511.302
						C3692.903,2682.44,3703.62,2691.802,3715.467,2691.802z"/>
				</g>
				<g>
					
						<ellipse transform="matrix(0.6882 -0.7255 0.7255 0.6882 -331.2953 3455.4214)" style="fill:#FFFFFF;" cx="3854.729" cy="2113.172" rx="12.139" ry="13.489"/>
				</g>
			</g>
			<g>
				<path style="fill:#FEABB5;" d="M3976.985,2440.652c11.122,17.523,26.966,16.003,35.687,13.364
					c-12.482,5.28-37.287,18.242-19.604,32.084c11.122,8.803,24.805,11.204,36.007,11.444c-16.163,2.799-33.767,9.281-20.804,24.485
					c21.604,25.525,159.232-13.524,159.232-13.524v-126.985l-68.734-2.561c0,0-128.746-16.962-121.544,16.243
					c3.201,14.962,13.443,20.244,23.685,21.524C3984.587,2419.767,3967.864,2426.489,3976.985,2440.652z"/>
			</g>
		</g>
		<g>
			<g>
				<g>
					<path style="fill:#2C3D61;" d="M1099.878,2064.071c0,0,28.141,21.965,68.629,51.388
						c48.665,35.358,115.129,81.457,172.052,113.045c41.129,22.85,77.287,38.165,98.292,36.481
						c106.951-8.499,338.973-333.283,338.973-333.283l-108.625-146.461l-236.602,232.808l-244.448-162.75l-26.377,110.798
						L1099.878,2064.071z"/>
				</g>
				<g>
					<path style="fill:#1D1B37;" d="M1168.507,2115.459c48.665,35.358,115.129,81.457,172.052,113.045
						c-10.663-15.311-20.444-31.188-29.504-47.544c-31.188-56.2-52.513-117.21-70.152-178.863
						c-2.566-8.902-5.291-37.362-12.667-43.054c-13.709-10.585-14.912,10.26-18.199,21.006
						c-9.862,31.506-19.883,63.015-29.584,94.525C1176.203,2088.04,1172.034,2101.671,1168.507,2115.459z"/>
				</g>
				<g>
					<g>
						<g>
							<g>
								<g>
									<path style="fill:#1D1B37;" d="M1172.481,1387.735c0,0,30.99,123.033-74.787,141.747
										c-105.777,18.714-25.224-174.939-25.224-174.939l43.938-4.882L1172.481,1387.735z"/>
								</g>
								<g>
									<g>
										<path style="fill:#CE5D09;" d="M997.532,3936.847c0,0-5.675,156.62,10.214,163.43c15.889,6.81,112.358,0,112.358,0
											l7.206-23.389l38.191,26.416h198.613c0,0,4.54-98.361-51.072-106.305c-55.612-7.945-101.009,2.27-101.009,2.27
											l-95.334-80.58L997.532,3936.847z"/>
									</g>
									<g>
										<path style="fill:#CE5D09;" d="M671.471,3735.391c0,0-108.265,113.318-100.909,128.962
											c7.356,15.644,83.997,74.625,83.997,74.625l20.921-12.699l11.007,45.113l148.48,131.912c0,0,68.722-70.518,32.424-113.392
											c-36.298-42.875-77.02-65.39-77.02-65.39l-17.751-123.558L671.471,3735.391z"/>
									</g>
									<g>
										<path style="fill:#111B2C;" d="M1195.642,2646.569c0,0,51.263,635.192,2.257,750.707s-393.384,447.715-397.236,453.56
											c-37.415,56.768-170.535-60.805-151.26-115.445l358.966-416.553l-80.412-626.58l118.917-138.267L1195.642,2646.569z"/>
									</g>
									<g>
										<path style="fill:#111B2C;" d="M1052.447,2673.513c0,0,14.025,100.177-22.039,180.318l156.276,1087.921
											c0,41.331-206.364,41.331-206.364,0L741.898,2673.513H1052.447z"/>
									</g>
									<g>
										<g>
											<path style="fill:#2C3D61;" d="M669.449,2017.07c0.695,28.643,2.239,60.295,4.324,93.806
												c11.967,193.323,42.464,448.031,54.662,545.93c3.243,25.865,5.173,40.843,5.173,40.843s27.563,6.405,71.494,13.123
												c97.667,14.748,276.555,30.344,413.597-22.159c5.25-301.183,19.07-586.23-15.981-816
												c-3.243-20.844-53.968-37.288-122.914-46.63c-9.959-1.47-20.382-2.628-31.114-3.785
												c-64.236-6.563-139.205-7.491-204.984-1.312c-12.817,1.237-25.247,2.778-37.291,4.629
												c-68.483,9.96-120.906,29.42-130.094,60.533C669.527,1909.286,667.828,1956.537,669.449,2017.07z"/>
										</g>
										<g>
											<path style="fill:#1D1B37;" d="M669.449,2017.07c0.695,28.643,2.239,60.295,4.324,93.806
												c11.967,193.323,42.464,448.031,54.662,545.93c2.703,1.467,5.405,2.854,8.107,4.17
												c58.214,28.255,133.491,24.628,182.286-17.76c-35.361-95.348-130.866-159.043-164.76-254.938
												c-24.166-68.095-13.897-142.833-5.018-214.559c4.246-33.737,7.952-67.711,7.566-101.836
												c-0.309-28.798-2.625-59.911-12.662-87.242c-11.581-31.346-33.122-12.275-50.03,4.554
												C685.122,1997.998,676.938,2007.261,669.449,2017.07z"/>
										</g>
										<g>
											<g>
												<path style="fill:#3F547A;" d="M1087.757,2019.268l30.518-3.486c0,0-12.292,230.261-108.067,330.131
													c0,0-172.098-228.485-176.196-294.292l35.839-21.773l-64.032-25.257c0,0-33.208-114.733,0.611-179.132
													c11.987-1.835,24.463-3.303,37.245-4.526c65.806-6.238,140.725-5.26,205.002,1.284c10.703,1.1,21.099,2.323,31.13,3.73
													c1.651,2.814,45.991,77.794,37.367,147.514L1087.757,2019.268z"/>
											</g>
										</g>
										<g>
											<path style="fill:#E1E1FE;" d="M1050.108,1908.23c-3.365,78.42-17.222,204.741-27.715,292.372
												c-6.889,57.274-12.256,98.045-12.256,98.045s-22.668-45.818-51.185-110.619
												c-35.966-81.385-81.304-192.645-102.851-280.196c-8.17-33.404-12.976-63.362-12.416-86.911
												c0.4-0.08,0.881-0.08,1.282-0.08c15.86-1.521,32.201-2.564,48.862-3.205c6.648-0.319,13.377-0.479,20.185-0.559
												c22.268-0.561,44.857-0.321,67.046,0.559c5.767,0.243,11.534,0.481,17.302,0.802c17.222,0.882,34.124,2.163,50.304,3.765
												c0,0,0.962,16.101,2.003,42.615C1051.069,1876.43,1050.828,1891.17,1050.108,1908.23z"/>
										</g>
										<g>
											<path style="fill:#B7B7E4;" d="M1050.108,1908.23c-12.256,21.789-24.672,31.802-25.393,32.362l-11.214,8.812
												l-50.945-51.266l-41.973,59.116l-12.496-6.89c-23.549-12.895-40.291-27.635-51.986-42.533
												c-8.17-33.404-12.976-63.362-12.416-86.911c0.4-0.08,0.881-0.08,1.282-0.08c15.86-1.521,32.201-2.564,48.862-3.205
												c6.648-0.319,13.377-0.479,20.185-0.559c10.814,11.614,25.232,20.025,43.736,25.632
												c10.253-6.328,17.943-14.579,23.31-25.073c5.767,0.243,11.534,0.481,17.302,0.802
												c17.222,0.882,34.124,2.163,50.304,3.765c0,0,0.962,16.101,2.003,42.615
												C1051.069,1876.43,1050.828,1891.17,1050.108,1908.23z"/>
										</g>
										<g>
											<path style="fill:#E48A9A;" d="M873.136,1783.994c-2.1-59.455-9.17-86.285-39.676-146.022l176.712,52.053l-5.552,128.682
												C971.551,1917.9,926.979,1882.975,873.136,1783.994z"/>
										</g>
										<g>
											<path style="fill:#E5415C;" d="M1022.392,2200.602c-6.889,57.274-12.256,98.045-12.256,98.045
												s-22.668-45.818-51.185-110.619c-8.971-133.932-17.703-264.577-17.703-264.577c-11.935-6.409-15.7-13.218-15.7-13.218
												l0.641-26.592l16.341-14.579l21.708-4.807c0,0,14.338,6.809,20.586,24.351c6.248,17.622-8.01,40.372-8.01,40.372
												C988.029,1944.998,1006.292,2072.279,1022.392,2200.602z"/>
										</g>
										<g>
											<path style="fill:#E1E1FE;" d="M1050.634,1864.844c0,0.061-0.061,0.122-0.061,0.184
												c-12.476,44.707-35.778,62.993-35.778,62.993l-54.308-54.676l-44.707,62.993
												c-82.931-45.318-70.821-115.527-70.821-115.527l28.177-36.817c3.363,11.009,14.451,24.708,20.689,33.637
												c13.882,19.815,35.287,34.371,65.989,42.321c18.837-9.662,31.252-23.851,38.53-41.526
												c4.281-10.335,6.789-21.832,7.767-34.431l42.566,38.224C1048.677,1822.217,1049.656,1838.301,1050.634,1864.844z"/>
										</g>
										<g>
											<path style="fill:#FEABB5;" d="M777.925,1587.719c6.64,48.948,55.512,50.264,55.512,50.264
												s94.656,161.592,232.47,118.664c3.32-1.003,6.486-2.239,9.574-3.706c125.153-55.357,61.997-375.996,61.997-375.996
												s-225.367-60.145-230.694-58.833c-5.25,1.312-78.597,43.621-78.597,43.621v190.314c0,0-3.166-0.694-7.875-1.157
												C805.025,1549.27,772.906,1550.352,777.925,1587.719z"/>
										</g>
										<g>
											<path style="fill:#E48A9A;" d="M777.925,1587.719c6.64,48.948,55.512,50.264,55.512,50.264
												s94.656,161.592,232.47,118.664c3.32-1.003,6.486-2.239,9.574-3.706c-20.537,0.388-49.788,6.511-69.476,0.875
												c-48.563-13.896-72.19-32.157-112.647-62.425l-77.371-72.405c-10.191-7.642-21.077-16.135-24.32-28.485
												c-2.702-10.269,0.926-22.005,9.034-28.877c4.246-3.63,15.595-5.481,19.61-10.733
												C805.025,1549.27,772.906,1550.352,777.925,1587.719z"/>
										</g>
										<g>
											<path style="fill:#1D1B37;" d="M828.173,1552.052c0,0,5.586,15.678,18.47,11.651
												c12.884-4.026,32.818-153.699,32.818-153.699s220.034,24.052,275.597-8.964c55.563-33.016,8.053-61.2,0-60.395
												c-8.053,0.805,57.174-81.331,10.468-90.995c-46.705-9.663-80.526,6.442-80.526,6.442s25.052-51.537-9.216-44.289
												c-34.268,7.247-51.178,38.653-51.178,38.653s-144.947-38.653-201.315,97.437c0,0-57.979,0-68.447,72.474
												C744.374,1492.841,828.173,1552.052,828.173,1552.052z"/>
										</g>
									</g>
								</g>
								<g>
									<g>
										<path style="fill:#222130;" d="M946.282,1540.358c0,12.288,6.682,22.268,14.848,22.268c8.248,0,14.848-9.98,14.848-22.268
											c0-12.292-6.599-22.272-14.848-22.272C952.964,1518.085,946.282,1528.066,946.282,1540.358z"/>
									</g>
									<g>
										<path style="fill:#222130;" d="M1070.217,1540.358c0,12.288,6.682,22.268,14.848,22.268
											c8.248,0,14.848-9.98,14.848-22.268c0-12.292-6.599-22.272-14.848-22.272
											C1076.899,1518.085,1070.217,1528.066,1070.217,1540.358z"/>
									</g>
									<g>
										<path style="fill:#222130;" d="M986.673,1500.023c-20.71-4.966-38.632-4.017-57.796,4.322
											C940.942,1485.126,971.678,1483.437,986.673,1500.023L986.673,1500.023z"/>
									</g>
									<g>
										<path style="fill:#222130;" d="M1118.182,1501.771c-19.634-8.251-37.473-10.215-57.734-5.086
											C1075.464,1479.671,1106.067,1482.977,1118.182,1501.771L1118.182,1501.771z"/>
									</g>
									<g>
										<path style="fill:#E48A9A;" d="M1034.918,1528.735c7.872,16.384,13.26,33.441,18.065,50.655
											c2.624,8.916,5.103,22.759-5.388,28.557c-9.768,5.273-19.866-0.328-26.88-6.71c4.335,1.394,8.537,3.084,12.669,3.505
											c14.993,1.573,16.191-9.793,11.477-23.155C1040.33,1564.299,1036.381,1546.853,1034.918,1528.735L1034.918,1528.735z"/>
									</g>
									<g>
										<path style="fill:#AE5053;" d="M979.937,1642.473c0,0,1.319,18.644,13.444,33.324
											c7.177,8.579,17.983,15.836,34.397,17.323c14.517,1.236,24.58-3.218,31.425-9.98
											c15.343-14.765,15.426-40.666,15.426-40.666H979.937z"/>
									</g>
									<g>
										<path style="fill:#FFFFFF;" d="M981.834,1642.473c7.753,8.909,21.117,17.323,43.882,18.724
											c26.064,1.651,39.508-8.248,46.355-18.724H981.834z"/>
									</g>
									<g>
										<path style="fill:#E86060;" d="M993.381,1675.797c7.177,8.579,17.983,15.836,34.397,17.323
											c14.517,1.236,24.58-3.218,31.425-9.98c-5.278-6.682-16.167-14.93-36.458-14.27
											C1007.9,1669.28,998.826,1672.498,993.381,1675.797z"/>
									</g>
								</g>
							</g>
						</g>
					</g>
					<g>
						<g>
							<path style="fill:#E1E1FE;" d="M1464.969,2767.903l-930.218,268.57c-16.653,4.808-34.05-4.794-38.858-21.447L351.24,2514.005
								c-4.808-16.653,4.794-34.05,21.447-38.858l930.218-268.57c16.653-4.808,34.05,4.794,38.858,21.447l144.653,501.021
								C1491.224,2745.698,1481.622,2763.095,1464.969,2767.903z"/>
						</g>
						<g>
							<path style="fill:#060405;" d="M535.522,2905.145c-1.402-29.563-2.992-63.065,8.435-93.302
								c10.605-28.043,38.274-57.433,73.481-56.365c31.397,1.143,55.604,25.79,70.382,46.269c5.089,7.054,9.853,14.461,14.465,21.63
								c10.252,15.941,19.94,30.994,33.177,43.013c17.951,16.311,46.499,25.691,66.366,12.061
								c18.403-12.62,22.263-39.404,24.438-63.509l17.059-189.202c1.636-18.128,3.33-36.864,10.342-54.498
								c8.147-20.463,22.67-35.4,39.84-40.974c26.702-8.673,53.651,5.73,70.003,22.098c32.375,32.435,45.686,88.556,87.593,105.305
								c35.857,14.297,76.293-10.128,94.655-42.068c20.195-35.113,21.519-78.422,21.174-116.264
								c-0.557-42.532-2.213-85.161,11.415-124.066c11.07-31.619,38.931-63.509,74.007-59.028
								c31.742,4.119,50.684,35.203,65.025,65.079l-11.386,5.459c-12.874-26.809-29.51-54.679-55.263-58.009
								c-26.772-3.56-50.725,22.847-60.463,50.676c-12.969,37.018-11.239,79.242-10.708,119.774
								c0.358,39.503-1.081,84.818-22.855,122.677c-21.046,36.593-68.051,64.364-110.287,47.494
								c-47.994-19.175-59.349-75.552-91.843-108.1c-13.072-13.096-35.89-25.897-57.162-19.024
								c-13.59,4.415-25.26,16.681-32.013,33.641c-6.334,15.924-7.942,33.74-9.495,50.963l-17.059,189.202
								c-2.433,26.974-6.951,57.063-29.872,72.782c-25.268,17.33-60.376,6.511-81.998-13.113
								c-14.469-13.137-25.062-29.613-35.31-45.545c-4.518-7.021-9.191-14.288-14.087-21.071
								c-13.125-18.185-34.299-40.078-60.594-41.024c-28.967-1.176-52.155,24.252-61.211,48.209
								c-10.503,27.779-8.982,59.9-7.638,88.238L535.522,2905.145z"/>
						</g>
						<g>
							<path style="fill:#F8576B;" d="M566.862,2893.073c4.749,12.42-1.682,26.41-14.301,31.05
								c-12.467,4.597-26.455-1.834-31.052-14.3c-4.641-12.622,1.835-26.456,14.301-31.053
								C548.431,2874.13,562.221,2880.452,566.862,2893.073z"/>
						</g>
						<g>
							<path style="fill:#F8576B;" d="M1331.992,2367.519c4.749,12.42-1.682,26.41-14.301,31.05
								c-12.467,4.597-26.455-1.834-31.052-14.3c-4.641-12.622,1.834-26.456,14.301-31.054
								C1313.56,2348.576,1327.351,2354.898,1331.992,2367.519z"/>
						</g>
						<g>
							
								<rect x="434.339" y="2504.168" transform="matrix(0.9608 -0.2774 0.2774 0.9608 -678.3179 244.6608)" style="fill:#B7B7E4;" width="182.435" height="31.142"/>
						</g>
						<g>
							
								<rect x="447.484" y="2549.696" transform="matrix(0.9608 -0.2774 0.2774 0.9608 -690.4319 250.0941)" style="fill:#B7B7E4;" width="182.435" height="31.142"/>
						</g>
						<g>
							
								<rect x="462.74" y="2610.155" transform="matrix(0.9608 -0.2774 0.2774 0.9608 -708.7169 241.7661)" style="fill:#B7B7E4;" width="74.767" height="31.142"/>
						</g>
						<g>
							
								<rect x="569.723" y="2584.568" transform="matrix(0.9608 -0.2774 0.2774 0.9608 -698.1481 265.3489)" style="fill:#B7B7E4;" width="38.05" height="31.142"/>
						</g>
					</g>
					<g>
						<path style="fill:#FEABB5;" d="M814.078,2580.459c0,0,117.668-18.959,108.472,11.787
							c-9.196,30.746-58.029,27.484-58.029,27.484s108.013,81.736,23.727,119.58c-84.286,37.844-156.226-133.234-156.226-133.234
							L814.078,2580.459z"/>
					</g>
					<g id="XMLID_7_">
						<g>
							<path style="fill:#2C3D61;" d="M452.656,2298.646c11.506,125.121,283.886,362.33,283.886,362.33l96.114-88.752
								L647.6,2292.268l74.748-175.117c35.388-82.907,21.633-178.625-35.67-248.211l0,0
								C661.195,1885.516,444.109,2205.692,452.656,2298.646z"/>
						</g>
					</g>
				</g>
			</g>
		</g>
		<g>
			<g>
				<path style="fill:#FFCF30;" d="M2146.268,1644.655l-323.492-63.617c-14.654-2.882-28.767,6.674-31.63,21.234l-63.617,323.493
					c-2.882,14.653,6.562,28.841,21.216,31.723l323.493,63.617c14.654,2.882,28.766-6.674,31.648-21.327l63.617-323.492
					C2170.365,1661.724,2160.922,1647.536,2146.268,1644.655z M1968.836,1692.607c-14.097-2.772-23.261-16.424-20.489-30.52
					c2.772-14.097,16.423-23.261,30.52-20.489c14.097,2.772,23.261,16.423,20.489,30.52
					C1996.584,1686.214,1982.934,1695.379,1968.836,1692.607z"/>
			</g>
			<g>
				
					<rect x="1936.879" y="1607.684" transform="matrix(0.193 -0.9812 0.9812 0.193 -147.8701 3338.7751)" style="fill:#FFA719;" width="37.692" height="303.19"/>
			</g>
			<g>
				
					<rect x="1866.58" y="1723.164" transform="matrix(0.193 -0.9812 0.9812 0.193 -261.142 3316.3018)" style="fill:#FFA719;" width="37.692" height="187.473"/>
			</g>
			<g>
				
					<rect x="2038.283" y="1816.205" transform="matrix(0.193 -0.9812 0.9812 0.193 -155.705 3512.0261)" style="fill:#FFA719;" width="37.692" height="68.924"/>
			</g>
			<g>
				
					<rect x="1889.595" y="1872.9" transform="matrix(0.193 -0.9812 0.9812 0.193 -317.1145 3400.1943)" style="fill:#FFA719;" width="37.692" height="39.945"/>
			</g>
			<g>
				
					<rect x="1949.507" y="1882.97" transform="matrix(0.193 -0.9812 0.9812 0.193 -280.3198 3468.4949)" style="fill:#FFA719;" width="37.692" height="43.369"/>
			</g>
			<g>
				
					<rect x="1799.3" y="1836.161" transform="matrix(0.193 -0.9812 0.9812 0.193 -372.5617 3297.2668)" style="fill:#FFA719;" width="37.692" height="77.909"/>
			</g>
		</g>
		<g>
			<g style="opacity:0.1;">
				<g>
					<path d="M2745.72,1320.69h-250.83c-11.362,0-21.112,9.205-21.868,20.495l-16.801,250.83
						c-0.761,11.362,7.755,20.567,19.117,20.567h250.83c11.362,0,21.111-9.205,21.872-20.567l16.801-250.83
						C2765.599,1329.895,2757.083,1320.69,2745.72,1320.69z M2616.163,1382.535c-10.931,0-19.183-8.845-18.451-19.776
						c0.732-10.931,10.17-19.776,21.1-19.776c10.931,0,19.184,8.845,18.451,19.776
						C2636.531,1373.689,2627.094,1382.535,2616.163,1382.535z"/>
				</g>
			</g>
			<g>
				<g>
					<path style="fill:#46A1E9;" d="M2737.386,1307.125h-250.83c-11.362,0-21.111,9.205-21.868,20.495l-16.801,250.83
						c-0.761,11.362,7.755,20.567,19.117,20.567h250.83c11.362,0,21.111-9.205,21.872-20.567l16.801-250.83
						C2757.264,1316.33,2748.748,1307.125,2737.386,1307.125z M2607.829,1368.97c-10.931,0-19.184-8.845-18.451-19.776
						c0.732-10.931,10.17-19.776,21.101-19.776c10.931,0,19.183,8.845,18.451,19.776
						C2628.197,1360.124,2618.759,1368.97,2607.829,1368.97z"/>
				</g>
			</g>
			<g>
				<polygon style="fill:#258BCA;" points="2718.74,1435.005 2488.071,1435.005 2489.991,1406.328 2720.661,1406.328 				"/>
			</g>
			<g>
				<polygon style="fill:#258BCA;" points="2629.05,1459.663 2486.419,1459.663 2484.498,1488.34 2627.129,1488.34 				"/>
			</g>
			<g>
				<polygon style="fill:#258BCA;" points="2664.65,1459.663 2662.729,1488.34 2715.168,1488.34 2717.088,1459.663 				"/>
			</g>
			<g>
				<polygon style="fill:#258BCA;" points="2597.691,1512.999 2567.301,1512.999 2565.38,1541.676 2595.771,1541.676 				"/>
			</g>
			<g>
				<polygon style="fill:#258BCA;" points="2612.452,1512.999 2610.532,1541.676 2643.527,1541.676 2645.448,1512.999 				"/>
			</g>
			<g>
				<polygon style="fill:#258BCA;" points="2542.12,1512.999 2482.846,1512.999 2480.925,1541.676 2540.199,1541.676 				"/>
			</g>
		</g>
		<g>
			<g style="opacity:0.1;">
				<g>
					<path d="M2513.679,1799.758h-216.285c-9.797,0-18.204,7.937-18.856,17.673l-14.487,216.285
						c-0.656,9.797,6.687,17.734,16.484,17.734h216.284c9.798,0,18.204-7.937,18.86-17.734l14.487-216.285
						C2530.82,1807.695,2523.477,1799.758,2513.679,1799.758z M2401.965,1853.085c-9.425,0-16.541-7.627-15.91-17.052
						c0.631-9.425,8.769-17.052,18.194-17.052c9.426,0,16.542,7.627,15.91,17.052
						C2419.528,1845.458,2411.39,1853.085,2401.965,1853.085z"/>
				</g>
			</g>
			<g>
				<g>
					<path style="fill:#4DE9D2;" d="M2506.493,1788.062h-216.285c-9.797,0-18.204,7.937-18.856,17.673l-14.487,216.285
						c-0.656,9.797,6.687,17.734,16.484,17.734h216.285c9.798,0,18.204-7.937,18.86-17.734l14.487-216.285
						C2523.633,1795.999,2516.29,1788.062,2506.493,1788.062z M2394.778,1841.389c-9.425,0-16.541-7.627-15.91-17.052
						c0.631-9.425,8.769-17.052,18.194-17.052c9.426,0,16.542,7.627,15.91,17.052
						C2412.342,1833.762,2404.204,1841.389,2394.778,1841.389z"/>
				</g>
			</g>
			<g>
				<polygon style="fill:#20AEA7;" points="2490.415,1898.329 2291.514,1898.329 2293.17,1873.602 2492.071,1873.602 				"/>
			</g>
			<g>
				<polygon style="fill:#20AEA7;" points="2413.077,1919.592 2290.09,1919.592 2288.434,1944.319 2411.421,1944.319 				"/>
			</g>
			<g>
				<polygon style="fill:#20AEA7;" points="2443.774,1919.592 2442.118,1944.319 2487.334,1944.319 2488.99,1919.592 				"/>
			</g>
			<g>
				<polygon style="fill:#20AEA7;" points="2386.037,1965.582 2359.832,1965.582 2358.176,1990.309 2384.381,1990.309 				"/>
			</g>
			<g>
				<polygon style="fill:#20AEA7;" points="2398.766,1965.582 2397.109,1990.309 2425.561,1990.309 2427.217,1965.582 				"/>
			</g>
			<g>
				<polygon style="fill:#20AEA7;" points="2338.119,1965.582 2287.009,1965.582 2285.353,1990.309 2336.463,1990.309 				"/>
			</g>
		</g>
		<g>
			<g style="opacity:0.1;">
				<g>
					<path d="M2970.765,2028.202h-216.284c-9.798,0-18.204,7.937-18.856,17.673l-14.487,216.285
						c-0.656,9.797,6.687,17.734,16.484,17.734h216.285c9.797,0,18.204-7.937,18.86-17.734l14.487-216.285
						C2987.906,2036.14,2980.563,2028.202,2970.765,2028.202z M2859.051,2081.53c-9.425,0-16.541-7.627-15.91-17.052
						c0.631-9.425,8.769-17.052,18.194-17.052c9.426,0,16.542,7.627,15.91,17.052
						C2876.614,2073.902,2868.476,2081.53,2859.051,2081.53z"/>
				</g>
			</g>
			<g>
				<g>
					<path style="fill:#FF7D90;" d="M2963.579,2016.506h-216.284c-9.798,0-18.204,7.937-18.856,17.672l-14.487,216.285
						c-0.656,9.797,6.687,17.734,16.484,17.734h216.285c9.797,0,18.204-7.937,18.86-17.734l14.487-216.285
						C2980.719,2024.443,2973.376,2016.506,2963.579,2016.506z M2851.865,2069.833c-9.425,0-16.542-7.627-15.91-17.052
						c0.631-9.425,8.769-17.052,18.194-17.052c9.426,0,16.542,7.627,15.91,17.052
						C2869.427,2062.206,2861.29,2069.833,2851.865,2069.833z"/>
				</g>
			</g>
			<g>
				<polygon style="fill:#E5415C;" points="2947.501,2126.773 2748.6,2126.773 2750.256,2102.046 2949.157,2102.046 				"/>
			</g>
			<g>
				<polygon style="fill:#E5415C;" points="2870.163,2148.036 2747.176,2148.036 2745.52,2172.763 2868.507,2172.763 				"/>
			</g>
			<g>
				<polygon style="fill:#E5415C;" points="2900.86,2148.036 2899.204,2172.763 2944.42,2172.763 2946.077,2148.036 				"/>
			</g>
			<g>
				<polygon style="fill:#E5415C;" points="2843.123,2194.026 2816.918,2194.026 2815.262,2218.753 2841.467,2218.753 				"/>
			</g>
			<g>
				<polygon style="fill:#E5415C;" points="2855.852,2194.026 2854.195,2218.753 2882.646,2218.753 2884.303,2194.026 				"/>
			</g>
			<g>
				<polygon style="fill:#E5415C;" points="2795.206,2194.026 2744.095,2194.026 2742.439,2218.753 2793.549,2218.753 				"/>
			</g>
		</g>
		<g>
			<path style="fill:#FEABB5;" d="M1758.375,1768.808l-21.219,108.061l-56.231-75.818l34.6-58.172
				c0,0,88.774-114.657,117.883-77.887C1879.083,1722.688,1758.375,1768.808,1758.375,1768.808z"/>
		</g>
		<g>
			<g>
				<g>
					<g>
						
							<ellipse transform="matrix(0.7142 -0.7 0.7 0.7142 -153.474 2699.1125)" style="fill:#4D475B;" cx="3228.201" cy="1537.478" rx="240.944" ry="231.462"/>
					</g>
				</g>
				<g>
					<g>
						
							<ellipse transform="matrix(0.7142 -0.7 0.7 0.7142 -153.4688 2699.1277)" style="fill:#FFFFFF;" cx="3228.201" cy="1537.478" rx="195.685" ry="187.983"/>
					</g>
				</g>
				<g>
					<g>
						<g>
							<g>
								<path style="fill:#060405;" d="M3236.112,1390.09c-2.311,0-4.106-1.87-4.013-4.181l0.547-13.617
									c0.093-2.311,2.038-4.181,4.349-4.181c2.311,0,4.106,1.87,4.013,4.181l-0.547,13.617
									C3240.367,1388.22,3238.422,1390.09,3236.112,1390.09z"/>
							</g>
						</g>
					</g>
					<g>
						<g>
							<g>
								<path style="fill:#060405;" d="M3155.746,1407.312l-6.333-11.791c-1.075-2.001-0.287-4.557,1.76-5.712
									c2.035-1.16,4.571-0.47,5.65,1.531l6.333,11.791c1.075,2.001,0.287,4.557-1.76,5.712
									C3159.372,1409.986,3156.833,1409.329,3155.746,1407.312z"/>
							</g>
						</g>
					</g>
					<g>
						<g>
							<g>
								<path style="fill:#060405;" d="M3098.812,1463.591l-11.518-6.806c-1.954-1.156-2.537-3.711-1.302-5.712
									c1.236-1.997,3.824-2.695,5.773-1.531l11.518,6.806c1.954,1.156,2.537,3.711,1.302,5.712
									C3103.343,1464.066,3100.754,1464.739,3098.812,1463.591z"/>
							</g>
						</g>
					</g>
					<g>
						<g>
							<g>
								<path style="fill:#060405;" d="M3076.547,1539.668h-13.616c-2.311,0-4.106-1.87-4.013-4.181
									c0.093-2.311,2.038-4.181,4.349-4.181h13.616c2.311,0,4.106,1.87,4.013,4.181
									C3080.803,1537.798,3078.858,1539.668,3076.547,1539.668z"/>
							</g>
						</g>
					</g>
					<g>
						<g>
							<g>
								<path style="fill:#060405;" d="M3077.199,1620.436c-1.075-2.001-0.287-4.557,1.76-5.712l12.065-6.806
									c2.035-1.164,4.572-0.474,5.65,1.531c1.075,2.001,0.287,4.557-1.76,5.712l-12.065,6.806
									C3080.825,1623.11,3078.286,1622.452,3077.199,1620.436z"/>
							</g>
						</g>
					</g>
					<g>
						<g>
							<g>
								<path style="fill:#060405;" d="M3135.945,1683.157c-1.954-1.156-2.537-3.711-1.302-5.712l7.284-11.791
									c1.236-2.005,3.823-2.687,5.773-1.531c1.954,1.156,2.538,3.711,1.302,5.712l-7.284,11.791
									C3140.473,1683.643,3137.878,1684.301,3135.945,1683.157z"/>
							</g>
						</g>
					</g>
					<g>
						<g>
							<g>
								<path style="fill:#060405;" d="M3219.408,1706.842c-2.311,0-4.106-1.87-4.013-4.181l0.547-13.616
									c0.093-2.311,2.038-4.181,4.349-4.181c2.311,0,4.106,1.87,4.013,4.181l-0.547,13.616
									C3223.664,1704.972,3221.719,1706.842,3219.408,1706.842z"/>
							</g>
						</g>
					</g>
					<g>
						<g>
							<g>
								<path style="fill:#060405;" d="M3299.577,1683.619l-6.333-11.792c-1.075-2-0.286-4.556,1.76-5.712
									c2.039-1.156,4.572-0.47,5.651,1.531l6.333,11.792c1.075,2.001,0.287,4.557-1.76,5.712
									C3303.203,1686.293,3300.664,1685.635,3299.577,1683.619z"/>
							</g>
						</g>
					</g>
					<g>
						<g>
							<g>
								<path style="fill:#060405;" d="M3364.636,1625.417l-11.518-6.81c-1.954-1.156-2.538-3.711-1.302-5.712
									c1.236-2.001,3.823-2.682,5.773-1.531l11.518,6.81c1.954,1.155,2.537,3.711,1.302,5.712
									C3369.164,1625.902,3366.569,1626.56,3364.636,1625.417z"/>
							</g>
						</g>
					</g>
					<g>
						<g>
							<g>
								<path style="fill:#060405;" d="M3393.135,1543.649h-13.613c-2.311,0-4.106-1.87-4.013-4.181
									c0.093-2.311,2.038-4.181,4.349-4.181h13.613c2.311,0,4.106,1.87,4.013,4.181
									C3397.391,1541.778,3395.446,1543.649,3393.135,1543.649z"/>
							</g>
						</g>
					</g>
					<g>
						<g>
							<g>
								<path style="fill:#060405;" d="M3359.727,1465.51c-1.075-2.001-0.287-4.557,1.76-5.712l12.065-6.81
									c2.039-1.151,4.576-0.478,5.65,1.531c1.075,2.001,0.287,4.557-1.76,5.712l-12.065,6.81
									C3363.353,1468.184,3360.811,1467.528,3359.727,1465.51z"/>
							</g>
						</g>
					</g>
					<g>
						<g>
							<g>
								<path style="fill:#060405;" d="M3308.705,1410.836c-1.954-1.155-2.537-3.711-1.302-5.712l7.28-11.792
									c1.236-2.001,3.819-2.686,5.773-1.531c1.954,1.155,2.538,3.711,1.302,5.712l-7.28,11.791
									C3313.236,1411.311,3310.648,1411.984,3308.705,1410.836z"/>
							</g>
						</g>
					</g>
				</g>
			</g>
			<g>
				<g>
					<path style="fill:#F8576B;" d="M3282.821,1603.017l-62.544-65.164l4.679-116.518c0.127-3.158,2.792-5.721,5.95-5.721
						s5.618,2.563,5.491,5.721l-4.489,111.78l59.326,61.812c2.145,2.235,2,5.855-0.325,8.09
						C3288.588,1605.251,3284.968,1605.254,3282.821,1603.017z"/>
				</g>
			</g>
			<g>
				<g>
					<path style="fill:#4D475B;" d="M3252.899,1537.453c-0.548,13.654-12.052,24.714-25.707,24.714
						c-13.577,0-24.193-11.06-23.645-24.714c0.545-13.578,12.05-24.638,25.627-24.638
						C3242.828,1512.815,3253.444,1523.875,3252.899,1537.453z"/>
				</g>
			</g>
		</g>
	</g>
	<g style="opacity:0.1;">
		<g>
			<path d="M2611.669,2361.186l-24.264,375.098c-1.205,18.622-17.287,33.727-35.911,33.727h-698.872
				c-18.624,0-32.753-15.105-31.548-33.727l24.264-375.098c1.205-18.622,17.288-33.727,35.911-33.727h698.872
				C2598.746,2327.459,2612.874,2342.565,2611.669,2361.186z"/>
		</g>
	</g>
	<g>
		<path style="fill:#55B1F4;" d="M2592.694,2341.669l-24.263,375.098c-1.205,18.622-17.287,33.727-35.911,33.727h-698.871
			c-18.624,0-32.753-15.105-31.548-33.727l24.264-375.098c1.205-18.622,17.288-33.727,35.911-33.727h698.871
			C2579.771,2307.942,2593.899,2323.047,2592.694,2341.669z"/>
	</g>
	<g>
		<path style="fill:#FFFFFF;" d="M1886.426,2541.048l-0.005,0.071c-0.749,11.586-10.811,21.036-22.399,21.036
			c-5.794,0-10.885-2.344-14.428-6.207c-3.617-3.796-5.624-9.036-5.249-14.829l0.005-0.071c0.75-11.589,10.811-21.037,22.399-21.037
			c5.794,0,10.885,2.344,14.433,6.137C1884.794,2530.011,1886.801,2535.255,1886.426,2541.048z"/>
	</g>
	<g>
		<path style="fill:#FFFFFF;" d="M1882.794,2597.189l-0.005,0.071c-0.749,11.586-10.81,21.036-22.399,21.036
			c-5.794,0-10.885-2.344-14.428-6.207c-3.617-3.796-5.624-9.036-5.249-14.829l0.005-0.071c0.75-11.589,10.811-21.037,22.399-21.037
			c5.794,0,10.885,2.344,14.433,6.137C1881.163,2586.152,1883.169,2591.396,1882.794,2597.189z"/>
	</g>
	<g>
		<path style="fill:#FFFFFF;" d="M1880.008,2653.33l-0.005,0.071c-0.749,11.586-10.81,21.036-22.399,21.036
			c-5.794,0-10.884-2.344-14.428-6.207c-3.617-3.796-5.624-9.036-5.249-14.829l0.005-0.071c0.75-11.589,10.81-21.037,22.399-21.037
			c5.794,0,10.885,2.344,14.433,6.136C1878.377,2642.293,1880.383,2647.537,1880.008,2653.33z"/>
	</g>
	<g>
		<path style="fill:#FFFFFF;" d="M1999.588,2471.363c-0.596-0.625-0.859-1.389-0.797-2.286l4.797-74.204h-24.914
			c-0.9,0-1.644-0.313-2.228-0.946c-0.588-0.633-0.847-1.439-0.785-2.433l0.654-10.096c0.066-0.986,0.403-1.8,1.032-2.417
			c0.621-0.633,1.426-0.945,2.417-0.945h68.82c0.986,0,1.776,0.312,2.364,0.945c0.583,0.617,0.851,1.431,0.785,2.417l-0.654,10.096
			c-0.062,0.995-0.432,1.801-1.098,2.433c-0.67,0.633-1.5,0.946-2.487,0.946h-24.779l-4.797,74.204
			c-0.062,0.896-0.407,1.661-1.024,2.286c-0.629,0.633-1.435,0.945-2.421,0.945h-12.661
			C2000.916,2472.308,2000.172,2471.996,1999.588,2471.363z"/>
		<path style="fill:#FFFFFF;" d="M2065.896,2464.358c-6.425-6.199-9.421-15.39-8.99-27.607c0.078-2.598,0.28-6.412,0.604-11.444
			c0.333-5.122,0.629-8.978,0.888-11.584c1.131-11.937,5.406-21.104,12.821-27.475c7.411-6.38,17.092-9.561,29.033-9.561
			c11.851,0,21.096,3.182,27.73,9.561c6.639,6.371,9.746,15.538,9.335,27.475c-0.156,5.204-0.316,9.068-0.481,11.584
			c-0.156,2.417-0.493,6.24-1.011,11.444c-1.147,12.217-5.356,21.408-12.624,27.607c-7.272,6.199-17.01,9.298-29.218,9.298
			C2081.677,2473.656,2072.317,2470.557,2065.896,2464.358z M2109.616,2452.643c3.737-3.584,5.973-9.109,6.729-16.566
			c0.526-5.393,0.851-9.027,0.97-10.91c0.135-2.063,0.28-5.705,0.44-10.901c0.206-7.366-1.369-12.866-4.723-16.5
			c-3.358-3.642-7.954-5.459-13.787-5.459c-5.927,0-10.807,1.817-14.63,5.459c-3.827,3.634-6.071,9.134-6.725,16.5
			c-0.259,2.598-0.538,6.232-0.843,10.901c-0.296,4.587-0.485,8.221-0.567,10.91c-0.3,7.366,1.205,12.866,4.518,16.5
			c3.313,3.634,7.975,5.45,13.992,5.45C2101.004,2458.028,2105.884,2456.236,2109.616,2452.643z"/>
		<path style="fill:#FFFFFF;" d="M2152.309,2471.363c-0.592-0.625-0.855-1.389-0.793-2.286l5.669-87.679
			c0.066-0.986,0.407-1.8,1.032-2.417c0.621-0.633,1.426-0.945,2.417-0.945h32.86c26.484,0,39.211,12.208,38.171,36.634
			c-0.156,5.204-0.292,8.706-0.411,10.498c-0.107,1.702-0.423,5.171-0.941,10.367c-1.172,12.579-5.159,21.852-11.966,27.812
			c-6.803,5.977-16.898,8.961-30.274,8.961h-33.534C2153.637,2472.308,2152.893,2471.996,2152.309,2471.363z M2188.404,2456.688
			c7.457,0,12.952-1.669,16.488-4.99c3.535-3.313,5.644-8.838,6.326-16.566c0.522-5.377,0.83-8.747,0.921-10.095
			c0.091-1.439,0.214-4.76,0.378-9.972c0.292-7.358-1.2-12.767-4.476-16.22c-3.28-3.461-8.69-5.188-16.233-5.188h-16.43
			l-4.073,63.032H2188.404z"/>
		<path style="fill:#FFFFFF;" d="M2236.333,2471.502c-0.501-0.542-0.723-1.217-0.674-2.022l0.345-1.208l37.941-86.873
			c1.044-2.236,2.734-3.362,5.069-3.362h14.814c2.335,0,3.876,1.126,4.628,3.362l26.707,86.873l0.189,1.208
			c-0.049,0.806-0.386,1.48-1.007,2.022c-0.617,0.534-1.282,0.806-2.002,0.806h-11.986c-1.883,0-3.132-0.855-3.741-2.557
			l-5.142-16.294h-39.865l-7.247,16.294c-0.83,1.702-2.187,2.557-4.069,2.557h-11.987
			C2237.497,2472.308,2236.839,2472.037,2236.333,2471.502z M2267.336,2437.828h30.435l-12.533-41.484L2267.336,2437.828z"/>
		<path style="fill:#FFFFFF;" d="M2353.111,2471.363c-0.592-0.625-0.855-1.389-0.793-2.286l1.957-30.312l-28.264-56.422
			c-0.218-0.806-0.321-1.299-0.308-1.488c0.053-0.806,0.382-1.472,1.007-2.014c0.617-0.534,1.282-0.806,2.002-0.806h12.122
			c1.702,0,3.042,0.855,4.008,2.557l20.101,39.051l25.288-39.051c0.399-0.633,0.954-1.208,1.661-1.751
			c0.707-0.534,1.554-0.806,2.54-0.806h12.122c0.81,0,1.467,0.271,1.973,0.806c0.501,0.542,0.724,1.208,0.674,2.014
			c-0.037,0.542-0.206,1.036-0.501,1.488l-35.433,56.422l-1.957,30.312c-0.066,0.987-0.432,1.768-1.102,2.351
			c-0.666,0.592-1.488,0.88-2.475,0.88h-12.393C2354.443,2472.308,2353.699,2471.996,2353.111,2471.363z"/>
	</g>
	<g>
		<g>
			<path style="fill:#FFFFFF;" d="M2171.489,2541.083c-0.272,4.207-3.938,7.652-8.147,7.652h-244.113
				c-4.209,0-7.429-3.445-7.157-7.652c0.272-4.211,3.939-7.652,8.147-7.652h244.113
				C2168.541,2533.431,2171.762,2536.872,2171.489,2541.083z"/>
		</g>
	</g>
	<g>
		<g>
			<path style="fill:#FFFFFF;" d="M2167.858,2597.224c-0.272,4.207-3.938,7.652-8.147,7.652h-244.113
				c-4.209,0-7.429-3.445-7.157-7.652c0.272-4.211,3.938-7.652,8.147-7.652H2160.7
				C2164.909,2589.572,2168.13,2593.013,2167.858,2597.224z"/>
		</g>
	</g>
	<g>
		<g>
			<path style="fill:#FFFFFF;" d="M2121.46,2653.365c-0.272,4.207-3.939,7.652-8.147,7.652h-201.347
				c-4.209,0-7.429-3.445-7.157-7.652c0.272-4.211,3.939-7.652,8.147-7.652h201.347
				C2118.512,2645.713,2121.733,2649.154,2121.46,2653.365z"/>
		</g>
	</g>
	<g>
		<g>
			<path style="fill:#055E96;" d="M2305.24,2577.331c0.281-4.348,4.027-7.864,8.372-7.864h13.52c4.346,0,7.635,3.516,7.354,7.864
				c-0.281,4.345-4.026,7.861-8.371,7.861h-13.52C2308.249,2585.192,2304.958,2581.676,2305.24,2577.331z"/>
		</g>
		<g>
			<path style="fill:#055E96;" d="M2302.04,2626.787c0.281-4.345,4.027-7.864,8.372-7.864h129.4c4.345,0,7.636,3.52,7.355,7.864
				s-4.026,7.861-8.372,7.861h-129.4C2305.05,2634.648,2301.759,2631.132,2302.04,2626.787z"/>
		</g>
		<g>
			<path style="fill:#055E96;" d="M2527.568,2676.242c-0.281,4.345-4.026,7.861-8.372,7.861h-133.263
				c-4.277,0-7.636-3.516-7.355-7.861c0.281-4.345,4.096-7.864,8.372-7.864h133.263
				C2524.559,2668.378,2527.849,2671.898,2527.568,2676.242z"/>
		</g>
		<g>
			<path style="fill:#055E96;" d="M2530.767,2626.787c-0.281,4.345-4.026,7.861-8.372,7.861h-42.007
				c-4.345,0-7.635-3.516-7.354-7.861s4.026-7.864,8.372-7.864h42.007C2527.758,2618.923,2531.048,2622.442,2530.767,2626.787z"/>
		</g>
		<g>
			<path style="fill:#055E96;" d="M2533.966,2577.331c-0.281,4.345-4.026,7.861-8.372,7.861h-133.263
				c-4.277,0-7.636-3.516-7.355-7.861c0.281-4.348,4.096-7.864,8.372-7.864h133.263
				C2530.957,2569.467,2534.248,2572.983,2533.966,2577.331z"/>
		</g>
		<g>
			<path style="fill:#055E96;" d="M2351.125,2676.242c-0.281,4.345-4.026,7.861-8.372,7.861h-36.557
				c-4.346,0-7.636-3.516-7.355-7.861c0.281-4.345,4.027-7.864,8.372-7.864h36.558
				C2348.116,2668.378,2351.407,2671.898,2351.125,2676.242z"/>
		</g>
		<g>
			<path style="fill:#055E96;" d="M2480.536,2527.872c0.281-4.345,4.026-7.861,8.372-7.861h40.903c4.346,0,7.636,3.516,7.355,7.861
				c-0.281,4.348-4.027,7.864-8.372,7.864h-40.903C2483.545,2535.736,2480.254,2532.22,2480.536,2527.872z"/>
		</g>
		<g>
			<path style="fill:#055E96;" d="M2308.439,2527.872c0.281-4.345,4.026-7.861,8.372-7.861h126.158c4.346,0,7.636,3.516,7.355,7.861
				c-0.281,4.348-4.027,7.864-8.372,7.864h-126.158C2311.448,2535.736,2308.157,2532.22,2308.439,2527.872z"/>
		</g>
	</g>
	<g>
		<g style="opacity:0.1;">
			<g>
				<path d="M3390.381,2418.978l-20.107,321.389c-0.696,11.127-10.281,20.147-21.408,20.147h-331.604
					c-11.127,0-19.583-9.02-18.887-20.147l25.009-399.734c0.696-11.127,10.281-20.147,21.408-20.147h253.259L3390.381,2418.978z"/>
			</g>
		</g>
		<g>
			<path style="fill:#FFFFFF;" d="M3372.153,2400.531l-20.107,321.389c-0.696,11.127-10.281,20.147-21.408,20.147h-331.604
				c-11.127,0-19.583-9.02-18.887-20.147l25.009-399.734c0.696-11.127,10.281-20.147,21.408-20.147h253.258L3372.153,2400.531z"/>
		</g>
		<g>
			<polygon style="fill:#B7B7E4;" points="3372.153,2400.531 3273.66,2400.531 3279.823,2302.039 			"/>
		</g>
		<g>
			<g>
				<polygon style="fill:#55B1F4;" points="3097.582,2543.678 3094.955,2585.662 3037.168,2585.662 3039.794,2543.678 				"/>
			</g>
			<g>
				<polygon style="fill:#FFCF30;" points="3211.161,2501.693 3205.907,2585.662 3148.12,2585.662 3153.374,2501.693 				"/>
			</g>
			<g>
				<polygon style="fill:#FC271F;" points="3324.819,2458.444 3316.86,2585.662 3259.072,2585.662 3267.031,2458.444 				"/>
			</g>
		</g>
		<g>
			<polygon style="fill:#BBCAEA;" points="3310.762,2644.886 3035.855,2644.886 3036.699,2631.396 3311.606,2631.396 			"/>
		</g>
		<g>
			<polygon style="fill:#BBCAEA;" points="3114.894,2670.275 3034.266,2670.275 3033.423,2683.764 3114.05,2683.764 			"/>
		</g>
		<g>
			<polygon style="fill:#BBCAEA;" points="3149.083,2670.275 3148.239,2683.764 3241.349,2683.764 3242.193,2670.275 			"/>
		</g>
	</g>
</g>
</svg>
